<svg width="512" height="512" viewBox="0 0 512 512" fill="none" xmlns="http://www.w3.org/2000/svg">
<path fill-rule="evenodd" clip-rule="evenodd" d="M300.311 219.218L257.817 110.171L213.178 220.317C223.31 228.629 229.739 241.246 229.739 255.496C229.739 280.827 209.424 301.299 184.101 301.299H180.358L124.254 439.731C122.561 443.908 120.201 447.615 117.346 450.778C144.63 470.2 176.165 484.043 210.287 490.646V327.492C210.287 302.163 230.602 281.84 255.925 281.84C281.248 281.84 301.713 302.161 301.713 327.492V490.646C335.458 484.116 366.672 470.505 393.748 451.42C390.514 448.003 387.873 443.916 386.059 439.262L332.297 301.299H328.049C302.726 301.299 282.261 280.827 282.261 255.496C282.261 240.603 289.335 227.493 300.311 219.218ZM412.79 301.299L449.768 396.19C469.911 368.461 484.249 336.238 491 301.299H412.79ZM377.209 209.993L312.625 44.2591C309.903 37.2753 306.171 31.2711 301.713 26.2482V20.6455C397.269 39.1355 472.53 114.402 491 209.993H377.209ZM220.259 20.6455C213.432 26.4297 207.739 34.0554 203.901 43.5273L136.436 209.993H21C39.47 114.402 114.731 39.1355 210.287 20.6455L220.259 20.6455ZM99.4323 301.299H21C27.6606 335.771 41.7067 367.599 61.4268 395.075L99.4323 301.299Z" fill="#9C7443"/>
</svg>
