<svg width="512" height="512" viewBox="0 0 512 512" fill="none" xmlns="http://www.w3.org/2000/svg">
<path fill-rule="evenodd" clip-rule="evenodd" d="M133.8 242.778C66.123 201.527 21 127.055 21 42H220.75V76H98V132H220.75V155.094C178.667 167.238 145.6 200.55 133.8 242.778ZM291.25 132V155.094C333.333 167.238 366.4 200.55 378.2 242.778C445.877 201.528 491 127.055 491 42H291.25V76H431V132H291.25ZM187.85 277C187.85 239.362 218.362 208.85 256 208.85C293.638 208.85 324.15 239.362 324.15 277C324.15 314.638 293.638 345.15 256 345.15C218.362 345.15 187.85 314.638 187.85 277ZM21 512C21 426.945 66.123 352.472 133.8 311.222C145.6 353.45 178.667 386.762 220.75 398.906V512H21ZM291.25 398.906C333.333 386.762 366.4 353.45 378.2 311.222C445.877 352.473 491 426.945 491 512H291.25V398.906Z" fill="#9C7443"/>
</svg>
