<svg width="512" height="512" viewBox="0 0 512 512" fill="none" xmlns="http://www.w3.org/2000/svg">
<path fill-rule="evenodd" clip-rule="evenodd" d="M21.0589 221.877C2.31371 240.622 2.31371 271.014 21.0589 289.759L221.877 490.578C240.622 509.323 271.014 509.323 289.759 490.578L490.578 289.759C509.323 271.014 509.323 240.622 490.578 221.877L289.759 21.0589C271.014 2.31371 240.622 2.31371 221.877 21.0589L21.0589 221.877ZM251.762 16.661C252.229 13.1337 257.359 13.2096 257.721 16.7492L266.019 97.8164L270.03 127.897C270.07 128.197 270.158 128.496 270.287 128.77C295.458 182.573 335.862 199.895 373.767 185.088C376.5 184.02 379.411 186.98 378.066 189.589L347.175 249.48C346.817 250.174 346.198 250.706 345.454 250.939C310.092 262.031 272.887 237.589 256.456 172.596C255.618 169.281 249.873 169.339 249.134 172.678C236.4 230.214 206.809 256.743 175.579 255.444C171.099 255.258 166.901 254.88 162.452 253.625C161.703 253.414 161.082 252.897 160.71 252.215L128.553 193.179C127.155 190.611 129.97 187.597 132.722 188.585C171.39 202.473 211.387 183.516 234.752 127.764C234.826 127.588 234.884 127.402 234.923 127.215L241.019 97.8164L251.762 16.661ZM339.145 282.423C339.145 282.423 339.146 282.423 339.146 282.423C339.146 282.423 339.146 282.424 339.146 282.424L316.298 326.723C315.94 327.417 315.323 327.95 314.577 328.175C292.781 334.754 269.991 320.683 258.588 283.216C257.592 279.945 251.351 280.04 250.453 283.34C241.433 316.486 223.175 331.795 203.97 330.997C203.969 330.997 203.968 330.998 203.967 330.999C203.967 331 203.966 331.001 203.964 331.001C201.172 330.893 198.548 330.657 195.789 329.918C195.04 329.718 194.422 329.2 194.051 328.519L174.798 293.172C173.399 290.604 176.261 287.499 179.07 288.31C207.982 296.662 237.403 276.898 249.851 225.156C250.651 221.831 256.588 221.743 257.488 225.042C272.925 281.614 308.073 298.788 339.145 282.423ZM306.059 356.264C306.059 356.264 306.059 356.264 306.059 356.265C306.059 356.265 306.059 356.265 306.059 356.265L259.747 446.295C258.649 448.43 255.613 448.474 254.453 446.372L210.121 366.066C208.703 363.499 211.66 360.174 214.562 360.594C229.058 362.691 243.264 352.814 250.903 329.596C251.972 326.347 258.712 326.248 259.875 329.464C269.922 357.237 288.984 365.258 306.058 356.264C306.058 356.264 306.058 356.264 306.059 356.264Z" fill="#9C7443"/>
</svg>
